<svg width="113" height="84" viewBox="0 0 113 84" fill="none" xmlns="http://www.w3.org/2000/svg">
<rect x="111.726" y="0.5" width="83" height="111" transform="rotate(90 111.726 0.5)" stroke="black"/>
<path d="M39.1149 39.6147L39.1149 33.0006L39.9795 33.0006L39.9795 38.8551L42.3636 38.8551L42.3636 39.6147L39.1149 39.6147Z" fill="black"/>
<path d="M44.1362 39.6147L44.1362 33.0006L45.0008 33.0006L45.0008 39.6147L44.1362 39.6147Z" fill="black"/>
<path d="M47.3836 39.6147L47.3836 33.0006L48.2045 33.0006L49.724 37.0487L51.2348 33.0006L52.0557 33.0006L52.0557 39.6147L51.2261 39.6147L51.2261 34.9089L49.9948 38.2437L49.4446 38.2437L48.2132 34.9089L48.2132 39.6147L47.3836 39.6147Z" fill="black"/>
<path d="M54.4517 39.6147L54.4517 33.0006L55.3162 33.0006L55.3162 39.6147L54.4517 39.6147Z" fill="black"/>
<path d="M58.7086 39.6147L58.7086 33.7602L57.2851 33.7602L57.2851 33.0006L60.9879 33.0006L60.9879 33.7602L59.5732 33.7602L59.5732 39.6147L58.7086 39.6147Z" fill="black"/>
<path d="M62.9679 39.6147L62.9679 33.0006L66.1729 33.0006L66.1729 33.7602L63.8237 33.7602L63.8237 35.8908L65.8235 35.8908L65.8235 36.6504L63.8237 36.6504L63.8237 38.8551L66.1991 38.8551L66.1991 39.6147L62.9679 39.6147Z" fill="black"/>
<path d="M68.2533 39.6147L68.2533 33.0006L69.9737 33.0006C70.6665 32.9882 71.1789 33.1673 71.5107 33.5379C71.8484 33.9022 72.0085 34.4673 71.991 35.2331L71.991 37.3822C72.0085 38.148 71.8484 38.7161 71.5107 39.0867C71.1789 39.451 70.6665 39.627 69.9737 39.6147L68.2533 39.6147ZM69.1179 38.8643L69.9038 38.8643C70.3463 38.8705 70.6578 38.7532 70.8383 38.5123C71.0246 38.2715 71.1206 37.8546 71.1265 37.2618L71.1265 35.3442C71.1206 34.7576 71.0246 34.3438 70.8383 34.1029C70.6578 33.8621 70.3463 33.7448 69.9038 33.7509L69.1179 33.7509L69.1179 38.8643Z" fill="black"/>
<path d="M39 49.9074L39 43.2933L42.205 43.2933L42.205 44.0529L39.8558 44.0529L39.8558 46.1835L41.8557 46.1835L41.8557 46.9431L39.8558 46.9431L39.8558 49.1478L42.2312 49.1478L42.2312 49.9074L39 49.9074Z" fill="black"/>
<path d="M44.2855 49.9074L44.2855 43.2933L46.0058 43.2933C46.6987 43.2809 47.211 43.46 47.5429 43.8306C47.8805 44.1949 48.0406 44.76 48.0232 45.5258L48.0232 47.6749C48.0406 48.4407 47.8805 49.0088 47.5429 49.3794C47.211 49.7437 46.6987 49.9197 46.0058 49.9074L44.2855 49.9074ZM45.15 49.157L45.936 49.157C46.3785 49.1632 46.6899 49.0459 46.8704 48.805C47.0567 48.5642 47.1528 48.1473 47.1586 47.5545L47.1586 45.6369C47.1528 45.0502 47.0567 44.6365 46.8704 44.3956C46.6899 44.1548 46.3785 44.0374 45.936 44.0436L45.15 44.0436L45.15 49.157Z" fill="black"/>
<path d="M50.296 49.9074L50.296 43.2933L51.1606 43.2933L51.1606 49.9074L50.296 49.9074Z" fill="black"/>
<path d="M54.5529 49.9074L54.5529 44.0529L53.1295 44.0529L53.1295 43.2933L56.8323 43.2933L56.8323 44.0529L55.4175 44.0529L55.4175 49.9074L54.5529 49.9074Z" fill="black"/>
<path d="M58.812 49.9074L58.812 43.2933L59.6766 43.2933L59.6766 49.9074L58.812 49.9074Z" fill="black"/>
<path d="M61.9371 47.6749L61.9371 45.5258C61.9371 44.7538 62.0769 44.1887 62.3563 43.8306C62.6823 43.4106 63.1859 43.2007 63.8671 43.2007C64.6007 43.2007 65.1305 43.4446 65.4565 43.9325C65.6836 44.2783 65.7971 44.8094 65.7971 45.5258L65.7971 47.6749C65.7971 48.4468 65.6574 49.0119 65.3779 49.3701C65.0519 49.79 64.5483 50 63.8671 50C63.1335 50 62.6037 49.7561 62.2777 49.2682C62.0507 48.9224 61.9371 48.3913 61.9371 47.6749ZM64.9325 47.5915L64.9325 45.6091C64.9325 45.0225 64.8481 44.5994 64.6793 44.3401C64.5163 44.0807 64.2455 43.951 63.8671 43.951C63.4887 43.951 63.2151 44.0807 63.0462 44.3401C62.8832 44.5994 62.8017 45.0225 62.8017 45.6091L62.8017 47.5915C62.8017 48.1782 62.8832 48.6012 63.0462 48.8606C63.2151 49.12 63.4887 49.2497 63.8671 49.2497C64.2455 49.2497 64.5163 49.12 64.6793 48.8606C64.8481 48.6012 64.9325 48.1782 64.9325 47.5915Z" fill="black"/>
<path d="M68.0614 49.9074L68.0614 43.2933L68.9085 43.2933L71.1704 48.1936L71.1704 43.2933L72 43.2933L72 49.9074L71.1704 49.9074L68.8911 44.9885L68.8911 49.9074L68.0614 49.9074Z" fill="black"/>
</svg>
