<svg width="106" height="141" viewBox="0 0 106 141" fill="none" xmlns="http://www.w3.org/2000/svg">
<rect x="0.5" y="0.5" width="105" height="140" stroke="black"/>
<path d="M36.6172 67V60.574H37.5082V66.262H39.9652V67H36.6172Z" fill="black"/>
<path d="M41.792 67V60.574H42.683V67H41.792Z" fill="black"/>
<path d="M45.1386 67V60.574H45.9846L47.5506 64.507L49.1076 60.574H49.9536V67H49.0986V62.428L47.8296 65.668H47.2626L45.9936 62.428V67H45.1386Z" fill="black"/>
<path d="M52.4228 67V60.574H53.3138V67H52.4228Z" fill="black"/>
<path d="M56.8099 67V61.312H55.3429V60.574H59.1589V61.312H57.7009V67H56.8099Z" fill="black"/>
<path d="M61.1994 67V60.574H64.5024V61.312H62.0814V63.382H64.1424V64.12H62.0814V66.262H64.5294V67H61.1994Z" fill="black"/>
<path d="M66.6465 67V60.574H68.4195C69.1335 60.562 69.6615 60.736 70.0035 61.096C70.3515 61.45 70.5165 61.999 70.4985 62.743V64.831C70.5165 65.575 70.3515 66.127 70.0035 66.487C69.6615 66.841 69.1335 67.012 68.4195 67H66.6465ZM67.5375 66.271H68.3475C68.8035 66.277 69.1245 66.163 69.3105 65.929C69.5025 65.695 69.6015 65.29 69.6075 64.714V62.851C69.6015 62.281 69.5025 61.879 69.3105 61.645C69.1245 61.411 68.8035 61.297 68.3475 61.303H67.5375V66.271Z" fill="black"/>
<path d="M36.4987 77V70.574H39.8017V71.312H37.3807V73.382H39.4417V74.12H37.3807V76.262H39.8287V77H36.4987Z" fill="black"/>
<path d="M41.9458 77V70.574H43.7188C44.4328 70.562 44.9608 70.736 45.3028 71.096C45.6508 71.45 45.8158 71.999 45.7978 72.743V74.831C45.8158 75.575 45.6508 76.127 45.3028 76.487C44.9608 76.841 44.4328 77.012 43.7188 77H41.9458ZM42.8368 76.271H43.6468C44.1028 76.277 44.4238 76.163 44.6098 75.929C44.8018 75.695 44.9008 75.29 44.9068 74.714V72.851C44.9008 72.281 44.8018 71.879 44.6098 71.645C44.4238 71.411 44.1028 71.297 43.6468 71.303H42.8368V76.271Z" fill="black"/>
<path d="M48.1401 77V70.574H49.0311V77H48.1401Z" fill="black"/>
<path d="M52.5272 77V71.312H51.0602V70.574H54.8762V71.312H53.4182V77H52.5272Z" fill="black"/>
<path d="M56.9165 77V70.574H57.8075V77H56.9165Z" fill="black"/>
<path d="M60.1372 74.831V72.743C60.1372 71.993 60.2812 71.444 60.5692 71.096C60.9052 70.688 61.4242 70.484 62.1262 70.484C62.8822 70.484 63.4282 70.721 63.7642 71.195C63.9982 71.531 64.1152 72.047 64.1152 72.743V74.831C64.1152 75.581 63.9712 76.13 63.6832 76.478C63.3472 76.886 62.8282 77.09 62.1262 77.09C61.3702 77.09 60.8242 76.853 60.4882 76.379C60.2542 76.043 60.1372 75.527 60.1372 74.831ZM63.2242 74.75V72.824C63.2242 72.254 63.1372 71.843 62.9632 71.591C62.7952 71.339 62.5162 71.213 62.1262 71.213C61.7362 71.213 61.4542 71.339 61.2802 71.591C61.1122 71.843 61.0282 72.254 61.0282 72.824V74.75C61.0282 75.32 61.1122 75.731 61.2802 75.983C61.4542 76.235 61.7362 76.361 62.1262 76.361C62.5162 76.361 62.7952 76.235 62.9632 75.983C63.1372 75.731 63.2242 75.32 63.2242 74.75Z" fill="black"/>
<path d="M66.4487 77V70.574H67.3217L69.6527 75.335V70.574H70.5077V77H69.6527L67.3037 72.221V77H66.4487Z" fill="black"/>
</svg>
