<?xml version="1.0" encoding="UTF-8" standalone="no"?>
<!DOCTYPE svg PUBLIC "-//W3C//DTD SVG 1.1//EN" "http://www.w3.org/Graphics/SVG/1.1/DTD/svg11.dtd">
<svg width="100%" height="100%" viewBox="0 0 57 57" version="1.1" xmlns="http://www.w3.org/2000/svg" xmlns:xlink="http://www.w3.org/1999/xlink" xml:space="preserve" xmlns:serif="http://www.serif.com/" style="fill-rule:evenodd;clip-rule:evenodd;stroke-linejoin:round;stroke-miterlimit:2;">
    <g transform="matrix(1,0,0,1,-596.5,-335.6)">
        <path d="M598.4,365.6L622.7,365.6L622.7,389.9C622.7,390.9 623.5,391.8 624.6,391.8C625.7,391.8 626.5,391 626.5,389.9L626.5,365.6L650.8,365.6C651.8,365.6 652.7,364.8 652.7,363.7C652.7,362.6 651.9,361.8 650.8,361.8L626.5,361.8L626.5,337.5C626.5,336.5 625.7,335.6 624.6,335.6C623.5,335.6 622.7,336.4 622.7,337.5L622.7,361.8L598.4,361.8C597.4,361.8 596.5,362.6 596.5,363.7C596.5,364.8 597.3,365.6 598.4,365.6Z" style="fill-rule:nonzero;"/>
    </g>
</svg>
