<?xml version="1.0" encoding="UTF-8" standalone="no"?>
<!DOCTYPE svg PUBLIC "-//W3C//DTD SVG 1.1//EN" "http://www.w3.org/Graphics/SVG/1.1/DTD/svg11.dtd">
<svg width="100%" height="100%" viewBox="0 0 70 76" version="1.1" xmlns="http://www.w3.org/2000/svg" xmlns:xlink="http://www.w3.org/1999/xlink" xml:space="preserve" xmlns:serif="http://www.serif.com/" style="fill-rule:evenodd;clip-rule:evenodd;stroke-linejoin:round;stroke-miterlimit:2;">
    <g transform="matrix(1,0,0,1,-509.1,-480.1)">
        <path d="M574.4,497.7C574.4,498.1 574.6,549.6 574.6,549.6C574.6,551.9 572.8,553.7 570.5,553.7L514.9,553.7C513.8,553.7 512.8,553.2 512,552.4C511.2,551.6 510.8,550.6 510.8,549.4L510.6,497.3C510.6,497.3 557.1,497.5 570.7,497.6C584.3,497.7 572,497.6 572,497.6L574.5,497.6L574.4,497.7Z" style="fill:rgb(234,234,234);fill-rule:nonzero;stroke:black;stroke-width:3px;"/>
        <path d="M529.3,497.8C529.3,497.8 529.2,481.6 542.9,481.6C556.6,481.6 556.2,495.9 556.2,497.7" style="fill-opacity:0;fill-rule:nonzero;stroke:black;stroke-width:3px;"/>
    </g>
</svg>
