<?xml version="1.0" encoding="UTF-8" standalone="no"?>
<!DOCTYPE svg PUBLIC "-//W3C//DTD SVG 1.1//EN" "http://www.w3.org/Graphics/SVG/1.1/DTD/svg11.dtd">
<svg width="100%" height="100%" viewBox="0 0 47 48" version="1.1" xmlns="http://www.w3.org/2000/svg" xmlns:xlink="http://www.w3.org/1999/xlink" xml:space="preserve" xmlns:serif="http://www.serif.com/" style="fill-rule:evenodd;clip-rule:evenodd;stroke-linejoin:round;stroke-miterlimit:2;">
    <g transform="matrix(1,0,0,1,-372.4,-344)">
        <path d="M418.7,345.1C418,344.4 416.9,344.4 416.2,345.1L396.2,365.3L375.6,344.5C375.3,344.2 374.8,344 374.4,344C373.4,344 372.7,344.8 372.7,345.8C372.7,346.8 372.9,346.7 373.2,347L393.8,367.8L372.9,388.9C372.6,389.2 372.4,389.7 372.4,390.1C372.4,390.8 372.8,391.4 373.5,391.7C374.2,392 374.9,391.8 375.4,391.3L396.3,370.2L416.3,390.4C417,391.1 418.1,391.1 418.8,390.4C419.5,389.7 419.5,388.6 418.8,387.9L398.8,367.7L418.8,347.5C419.5,346.8 419.5,345.7 418.8,345" style="fill:rgb(4,6,6);fill-rule:nonzero;"/>
    </g>
</svg>
